<?xml version="1.0" encoding="utf-8"?>
<!-- Generator: Adobe Illustrator 18.0.0, SVG Export Plug-In . SVG Version: 6.00 Build 0)  -->
<!DOCTYPE svg PUBLIC "-//W3C//DTD SVG 1.1//EN" "http://www.w3.org/Graphics/SVG/1.1/DTD/svg11.dtd">
<svg version="1.1" id="Layer_1" xmlns="http://www.w3.org/2000/svg" xmlns:xlink="http://www.w3.org/1999/xlink" x="0px" y="0px"
	 viewBox="0 0 366.4 47.2" enable-background="new 0 0 366.4 47.2" xml:space="preserve">
<g>
	<g>
		<path fill="#807B79" d="M81,26.2c8.1,0,13.6-4.2,13.6-10.7v-0.1c0-6.9-5.4-10.5-13.2-10.5H69v21.3H81z M65.8,1.8h15.8
			c9.6,0,16.2,4.9,16.2,13.3v0.1c0,9.1-7.9,13.9-17,13.9H69v16.2h-3.2V1.8z"/>
		<polygon fill="#807B79" points="121.1,1.8 124.3,1.8 124.3,22 152.2,22 152.2,1.8 155.4,1.8 155.4,45.4 152.2,45.4 152.2,25 
			124.3,25 124.3,45.4 121.1,45.4 		"/>
		<polygon fill="#807B79" points="182.1,1.8 213.1,1.8 213.1,4.8 185.3,4.8 185.3,21.9 210.3,21.9 210.3,24.9 185.3,24.9 
			185.3,42.4 213.4,42.4 213.4,45.4 182.1,45.4 		"/>
		<polygon fill="#807B79" points="237.5,1.8 240.5,1.8 270.6,39.7 270.6,1.8 273.7,1.8 273.7,45.4 271.2,45.4 240.6,6.7 240.6,45.4 
			237.5,45.4 		"/>
		<rect x="300.8" y="1.8" fill="#807B79" width="3.2" height="43.6"/>
		<polygon fill="#807B79" points="345.1,23.2 328.4,1.8 332.2,1.8 347.1,21 361.9,1.8 365.7,1.8 349,23.1 366.4,45.4 362.5,45.4 
			347,25.3 331.6,45.4 327.8,45.4 		"/>
	</g>
	<g>
		<path fill="#FFFFFF" d="M47.2,23.6c0,13-10.6,23.6-23.6,23.6C10.6,47.2,0,36.6,0,23.6S10.6,0,23.6,0C36.6,0,47.2,10.6,47.2,23.6"
			/>
		<path fill="#D2CDC9" d="M24.3,0v15.2c8.6,0.3,15.5,7.4,15.5,16.1c0,7-4.4,12.9-10.6,15.2c10.4-2.5,18-11.8,18-22.9
			C47.2,10.8,37,0.4,24.3,0"/>
		<path fill="#D2CDC9" d="M23,32L23,32c-8.6-0.4-15.5-7.5-15.5-16.2C7.5,8.9,11.9,2.9,18,0.7C7.7,3.2,0,12.5,0,23.6
			c0,12.8,10.2,23.2,23,23.6V32z"/>
		<path fill="#F1A81E" d="M24.3,16.6c3.6,0.3,6.4,3.4,6.4,7.1c0,3.7-2.8,6.7-6.4,7V16.6z"/>
		<path fill="#A49E9B" d="M8.7,15.8C8.7,7.8,15.1,1.3,23,1v14.3v0v0c-4.3,0.3-7.7,3.9-7.7,8.3c0,2.3,0.9,4.3,2.4,5.8
			C12.4,27.1,8.7,21.9,8.7,15.8"/>
		<path fill="#FFD36A" d="M23,30.7c-3.6-0.3-6.4-3.4-6.4-7c0-3.7,2.8-6.7,6.4-7.1V30.7z"/>
		<path fill="#A49E9B" d="M24.3,46.2V32v0c4.3-0.3,7.7-3.9,7.7-8.3c0-2.3-0.9-4.4-2.4-5.9c5.3,2.3,9,7.5,9,13.6
			C38.5,39.4,32.2,45.9,24.3,46.2"/>
	</g>
</g>
</svg>
